:FULLY-SPECIFIED
:DEGREES
416
root 8.55527 16.6384 -3.11714 1393.23 -86.7689 -1378.82
lowerback -0.200634 -1.44538 -1.99166
upperback 1.45295 -1.91905 0.466792
thorax 1.68299 -0.992134 1.56056
lowerneck -19.869 0.629546 -2.61615
upperneck 35.1151 -0.43491 3.47889
head 15.7721 -0.357943 1.77829
rclavicle 7.15625e-015 -2.82274e-014
rhumerus -30.5844 -8.64908 -81.9376
rradius 27.3959
rwrist 25.0462
rhand -20.552 -10.9392
rfingers 7.12502
rthumb 5.80694 -40.8396
lclavicle 7.15625e-015 -2.82274e-014
lhumerus -26.8243 -12.4346 85.6891
lradius 51.3273
lwrist 14.1794
lhand -29.7319 2.95252
lfingers 7.12502
lthumb -3.05854 32.9103
rfemur -48.1362 -3.36609 17.0156
rtibia 40.4996
rfoot -5.22229 -0.224341
rtoes -13.0351
lfemur -14.0712 -2.34221 -26.8931
ltibia 25.7906
lfoot -19.2191 4.66612
ltoes -11.9725
417
root 8.55229 16.6373 -3.13166 1395.96 -86.6558 -1381.42
lowerback -0.196841 -1.61101 -2.03197
upperback 1.4408 -2.1413 0.593837
thorax 1.68438 -1.10457 1.70926
lowerneck -19.9046 0.680181 -2.63901
upperneck 35.0527 -0.308822 3.39357
head 15.7438 -0.318549 1.76866
rclavicle -2.26615e-014 -1.98785e-015
rhumerus -30.7717 -9.3324 -81.4072
rradius 26.6198
rwrist 25.5445
rhand -20.6855 -11.1757
rfingers 7.12502
rthumb 5.678 -41.0796
lclavicle -2.26615e-014 -1.98785e-015
lhumerus -26.3892 -12.3475 85.3264
lradius 52.4546
lwrist 14.5768
lhand -29.8694 2.77482
lfingers 7.12502
lthumb -3.19131 32.7307
rfemur -47.7078 -2.69076 16.5709
rtibia 36.244
rfoot -5.3404 -1.41145
rtoes -13.4955
lfemur -12.6863 -2.28022 -26.8426
ltibia 24.6367
lfoot -19.0593 4.73977
ltoes -12.9875
418
root 8.54646 16.6412 -3.14711 1396.65 -86.3558 -1382.06
lowerback -0.115372 -1.74306 -2.24153
upperback 1.4428 -2.31774 0.637932
thorax 1.65927 -1.19575 1.87075
lowerneck -19.9488 0.690751 -2.7052
upperneck 34.9847 -0.246795 3.36707
head 15.7179 -0.30237 1.78005
rclavicle -3.97569e-015 1.03368e-014
rhumerus -31.0196 -9.97787 -80.8907
rradius 25.9055
rwrist 25.6878
rhand -20.9486 -11.2
rfingers 7.12502
rthumb 5.42402 -41.1106
lclavicle -3.97569e-015 1.03368e-014
lhumerus -25.9226 -12.364 85.0155
lradius 53.4129
lwrist 14.9642
lhand -30.0441 2.59479
lfingers 7.12502
lthumb -3.36002 32.5481
rfemur -47.1827 -1.90651 15.696
rtibia 32.1281
rfoot -5.46212 -2.80028
rtoes -13.5981
lfemur -11.1859 -2.17614 -26.9834
ltibia 23.3822
lfoot -18.6418 4.62836
ltoes -13.3536
419
root 8.53623 16.6333 -3.16301 1397.14 -86.1172 -1382.53
lowerback -0.0802378 -1.83557 -2.37123
upperback 1.50229 -2.44118 0.658953
thorax 1.71343 -1.2609 1.96234
lowerneck -20.0518 0.688627 -2.73466
upperneck 34.9195 -0.224478 3.36734
head 15.7094 -0.292648 1.78987
rclavicle 0 -3.65764e-014
rhumerus -31.3189 -10.6286 -80.3958
rradius 25.3889
rwrist 25.928
rhand -20.9336 -11.4572
rfingers 7.12502
rthumb 5.43841 -41.3674
lclavicle 0 -3.65764e-014
lhumerus -25.4476 -12.4131 84.6604
lradius 54.3262
lwrist 15.2219
lhand -30.075 2.17667
lfingers 7.12502
lthumb -3.38987 32.1295
rfemur -46.5505 -0.917668 14.7163
rtibia 28.2423
rfoot -5.56214 -4.29285
rtoes -13.4061
lfemur -9.64275 -2.11536 -27.0629
ltibia 22.1438
lfoot -18.2372 4.65268
ltoes -14.6389
420
root 8.52206 16.6251 -3.18286 1397.4 -85.8603 -1382.84
lowerback -0.0106535 -1.91859 -2.53874
upperback 1.57684 -2.55268 0.68147
thorax 1.76553 -1.32105 2.0777
lowerneck -20.0758 0.666265 -2.79534
upperneck 34.8011 -0.212898 3.35029
head 15.6567 -0.293574 1.79386
rclavicle -2.62396e-014 1.19271e-014
rhumerus -31.5892 -11.3161 -79.893
rradius 24.7288
rwrist 26.166
rhand -21.0769 -11.6962
rfingers 7.12502
rthumb 5.30014 -41.6099
lclavicle -2.62396e-014 1.19271e-014
lhumerus -24.9973 -12.5681 84.3312
lradius 55.1513
lwrist 15.4956
lhand -30.3163 2.06816
lfingers 7.12502
lthumb -3.62289 32.0171
rfemur -45.873 0.227905 13.5646
rtibia 24.8035
rfoot -5.735 -5.73026
rtoes -13.2407
lfemur -7.99928 -1.91654 -27.1162
ltibia 20.8884
lfoot -17.6914 4.51903
ltoes -16.259
421
root 8.50578 16.6113 -3.20344 1399.65 -85.7175 -1385.19
lowerback 0.100631 -1.99926 -2.47819
upperback 1.66826 -2.66494 0.739921
thorax 1.80329 -1.3788 2.10366
lowerneck -20.0631 0.659464 -2.86922
upperneck 34.7049 -0.192464 3.37067
head 15.6059 -0.288592 1.81776
rclavicle -2.26615e-014 -1.59028e-015
rhumerus -31.8813 -11.9273 -79.4166
rradius 24.1235
rwrist 26.5723
rhand -21.1529 -12.2269
rfingers 7.12502
rthumb 5.22667 -42.1425
lclavicle -2.26615e-014 -1.59028e-015
lhumerus -24.5298 -12.5882 84.0056
lradius 55.798
lwrist 15.6152
lhand -30.4497 1.78853
lfingers 7.12502
lthumb -3.75169 31.7353
rfemur -45.1989 1.3788 12.6225
rtibia 21.9136
rfoot -5.88264 -7.00172
rtoes -13.0993
lfemur -6.38035 -1.82158 -26.9317
ltibia 19.8013
lfoot -17.1514 4.2779
ltoes -17.4359
422
root 8.48687 16.593 -3.22666 1401.04 -85.4784 -1386.67
lowerback 0.192665 -2.08385 -2.55148
upperback 1.73926 -2.78102 0.809406
thorax 1.83834 -1.4403 2.21554
lowerneck -20.0986 0.649637 -2.9723
upperneck 34.6456 -0.141009 3.3294
head 15.583 -0.283581 1.82753
rclavicle 1.07344e-014 4.37326e-015
rhumerus -32.1764 -12.6554 -78.8072
rradius 23.4753
rwrist 27.0985
rhand -21.3561 -12.2934
rfingers 7.12502
rthumb 5.03051 -42.2137
lclavicle 1.07344e-014 4.37326e-015
lhumerus -24.1079 -12.6629 83.7542
lradius 56.4007
lwrist 15.9383
lhand -30.6753 1.47915
lfingers 7.12502
lthumb -3.96956 31.4219
rfemur -44.6592 2.50447 11.5722
rtibia 19.6476
rfoot -6.01434 -8.12652
rtoes -13.1418
lfemur -4.89686 -1.85474 -26.8281
ltibia 18.9144
lfoot -16.5688 4.05351
ltoes -19.1175
423
root 8.45717 16.5706 -3.25016 1402.28 -85.1802 -1388.03
lowerback 0.200048 -2.18668 -2.61702
upperback 1.80608 -2.91888 0.851357
thorax 1.91669 -1.51281 2.29105
lowerneck -20.0363 0.664691 -3.08133
upperneck 34.6427 -0.0707942 3.30616
head 15.5633 -0.272915 1.84915
rclavicle 2.06736e-014 -7.15625e-015
rhumerus -32.5472 -13.0695 -78.3302
rradius 22.9331
rwrist 27.442
rhand -21.2875 -12.5464
rfingers 7.12502
rthumb 5.09677 -42.4651
lclavicle 2.06736e-014 -7.15625e-015
lhumerus -23.7589 -12.7218 83.4953
lradius 56.8507
lwrist 16.1096
lhand -30.8462 1.34929
lfingers 7.12502
lthumb -4.13465 31.2889
rfemur -44.1646 3.21348 10.8164
rtibia 18.0708
rfoot -5.89992 -8.65507
rtoes -13.5906
lfemur -3.44295 -1.81913 -26.7234
ltibia 18.2354
lfoot -16.0161 3.65853
ltoes -20.3994
424
root 8.42662 16.541 -3.27616 1403.25 -85.0017 -1389.07
lowerback 0.146569 -2.22561 -2.56313
upperback 1.88135 -2.97056 0.866137
thorax 2.02523 -1.54054 2.27082
lowerneck -20.0496 0.65593 -3.16881
upperneck 34.6682 -0.0475265 3.29863
head 15.5774 -0.276124 1.86644
rclavicle -6.44062e-014 1.74931e-014
rhumerus -32.8872 -13.8565 -77.7334
rradius 22.255
rwrist 28.2161
rhand -21.3686 -12.4874
rfingers 7.12502
rthumb 5.01848 -42.408
lclavicle -6.44062e-014 1.74931e-014
lhumerus -23.4144 -12.8006 83.2267
lradius 57.2842
lwrist 16.183
lhand -30.9679 1.21929
lfingers 7.12502
lthumb -4.25211 31.1566
rfemur -43.881 3.79896 10.3707
rtibia 17.2024
rfoot -5.68984 -8.86691
rtoes -13.3493
lfemur -2.21452 -1.74887 -26.525
ltibia 17.8429
lfoot -15.4638 3.22821
ltoes -21.9849
425
root 8.39005 16.4987 -3.30348 1403.1 -84.813 -1388.97
lowerback 0.0646807 -2.23288 -2.56966
upperback 1.93788 -2.97846 0.867944
thorax 2.13035 -1.54685 2.27118
lowerneck -20.1619 0.627134 -3.28773
upperneck 34.8171 -0.034256 3.25819
head 15.6755 -0.29532 1.87673
rclavicle -2.3059e-014 1.19271e-014
rhumerus -33.1892 -14.4394 -77.2345
rradius 21.6379
rwrist 28.7394
rhand -21.3232 -12.8606
rfingers 7.12502
rthumb 5.06231 -42.7801
lclavicle -2.3059e-014 1.19271e-014
lhumerus -23.0938 -12.8786 83.0131
lradius 57.5767
lwrist 16.2476
lhand -31.0566 0.967468
lfingers 7.12502
lthumb -4.33784 30.903
rfemur -43.7477 4.15187 10.1511
rtibia 17.0472
rfoot -5.38456 -8.63622
rtoes -14.5589
lfemur -1.0965 -1.59208 -26.3796
ltibia 17.7561
lfoot -14.9875 2.47522
ltoes -22.0219
426
root 8.34834 16.4598 -3.33086 1403.22 -84.7085 -1389.07
lowerback -0.123384 -2.21927 -2.47622
upperback 2.00306 -2.95704 0.87063
thorax 2.29705 -1.53744 2.21263
lowerneck -20.3602 0.639431 -3.34054
upperneck 34.959 0.0322516 3.19704
head 15.7885 -0.284607 1.87762
rclavicle 1.78906e-014 1.27222e-014
rhumerus -33.4461 -15.4515 -76.5462
rradius 20.8734
rwrist 30.0349
rhand -21.1308 -12.6991
rfingers 7.12502
rthumb 5.24802 -42.6141
lclavicle 1.78906e-014 1.27222e-014
lhumerus -22.8541 -12.8969 82.809
lradius 57.9149
lwrist 16.3454
lhand -31.0921 0.875308
lfingers 7.12502
lthumb -4.37205 30.8102
rfemur -43.8191 4.14922 10.3607
rtibia 17.6708
rfoot -4.84517 -7.75111
rtoes -15.2675
lfemur -0.297827 -1.41121 -26.1419
ltibia 18.0885
lfoot -14.407 1.83579
ltoes -22.5165
427
root 8.31042 16.4194 -3.3568 1403.33 -84.6305 -1389.19
lowerback -0.1842 -2.20249 -2.28671
upperback 1.97771 -2.9351 0.852542
thorax 2.29286 -1.52216 2.08691
lowerneck -20.2939 0.679831 -3.39781
upperneck 35.0524 0.125456 3.13898
head 15.814 -0.266159 1.8812
rclavicle -1.74931e-014 -4.77083e-015
rhumerus -33.8354 -16.0662 -76.0374
rradius 20.2466
rwrist 30.8253
rhand -20.9289 -13.0638
rfingers 7.12502
rthumb 5.44299 -42.9739
lclavicle -1.74931e-014 -4.77083e-015
lhumerus -22.8166 -12.9181 82.6473
lradius 58.139
lwrist 16.186
lhand -31.1641 0.636696
lfingers 7.12502
lthumb -4.44156 30.5701
rfemur -44.0814 3.69619 10.9522
rtibia 19.1853
rfoot -1.87872 -6.46279
rtoes -16.3117
lfemur 0.240488 -1.31291 -25.8734
ltibia 18.8516
lfoot -13.7688 1.08989
ltoes -22.8452
428
root 8.27666 16.3882 -3.38097 1404.88 -84.7117 -1390.81
lowerback -0.08176 -2.16471 -1.81937
upperback 1.93711 -2.89286 0.872387
thorax 2.16807 -1.49101 1.85274
lowerneck -20.2632 0.715979 -3.43177
upperneck 35.1689 0.217697 3.04516
head 15.8598 -0.250562 1.86589
rclavicle -1.47101e-014 -6.36111e-015
rhumerus -34.1988 -16.7778 -75.4798
rradius 19.6395
rwrist 31.7536
rhand -20.5816 -13.0735
rfingers 7.12502
rthumb 5.77836 -42.9747
lclavicle -1.47101e-014 -6.36111e-015
lhumerus -22.9149 -12.8646 82.5279
lradius 58.4662
lwrist 16.0712
lhand -31.1531 0.688186
lfingers 7.12502
lthumb -4.43095 30.6218
rfemur -44.2477 3.02543 11.9664
rtibia 21.2878
rfoot 1.72284 -4.58086
rtoes -13.162
lfemur 0.402945 -1.24258 -25.3828
ltibia 20.2181
lfoot -12.9688 0.591226
ltoes -24.3322
429
root 8.25155 16.3698 -3.39993 1406.72 -85.0516 -1392.66
lowerback 0.0996793 -2.08244 -1.11157
upperback 1.88623 -2.79427 0.940282
thorax 1.97769 -1.4285 1.53804
lowerneck -20.3367 0.783915 -3.49429
upperneck 35.2916 0.374366 2.95982
head 15.9304 -0.209617 1.87302
rclavicle 8.34896e-015 -3.97569e-015
rhumerus -34.3743 -17.2014 -75.0837
rradius 19.025
rwrist 32.3004
rhand -20.2969 -13.0625
rfingers 7.12502
rthumb 6.05314 -42.956
lclavicle 8.34896e-015 -3.97569e-015
lhumerus -23.0613 -12.5492 82.4754
lradius 58.7014
lwrist 15.7572
lhand -31.0694 0.702509
lfingers 7.12502
lthumb -4.35011 30.6378
rfemur -44.7885 2.19822 13.3566
rtibia 23.836
rfoot 2.38631 -2.21571
rtoes -12.8
lfemur 0.223137 -1.27487 -24.7648
ltibia 22.1314
lfoot -12.2359 0.160728
ltoes -24.4046
